{"glyphs":{"0":{"ha":508,"x_min":0,"x_max":0,"o":"m 268 821 b 217 -3 7 810 -112 0 b 338 794 450 -4 657 808 b 268 821 318 793 306 822 z m 233 176 b 324 714 135 172 188 714 b 233 176 426 714 386 183 z "},"1":{"ha":288,"x_min":0,"x_max":0,"o":"m 218 811 b 171 790 200 811 182 811 b 82 676 147 749 117 711 b 65 636 72 665 54 656 b 115 614 76 617 94 607 b 136 589 149 626 142 608 b 119 -7 111 488 -31 39 b 193 51 163 -21 194 7 b 289 711 183 281 235 489 b 218 811 304 778 283 807 z "},"2":{"ha":507,"x_min":0,"x_max":0,"o":"m 115 144 b 375 358 167 228 282 281 b 517 628 456 428 517 526 b 308 824 517 735 465 824 b 57 561 157 824 36 689 b 154 467 65 508 108 465 b 264 567 207 467 257 517 b 258 604 265 576 267 597 b 210 607 251 610 231 592 b 283 735 169 635 196 735 b 361 642 325 735 361 700 b 89 257 361 415 197 378 b 3 42 64 231 3 169 b 17 21 3 28 8 21 b 40 33 24 21 32 25 b 119 75 69 64 96 75 b 276 8 174 75 218 19 b 440 119 357 -6 440 24 b 361 222 440 163 411 222 b 347 211 353 222 344 219 b 297 149 356 174 335 149 b 197 176 267 149 239 176 b 115 144 175 176 149 168 z "},"3":{"ha":507,"x_min":0,"x_max":0,"o":"m 318 829 b 103 649 182 829 103 746 b 179 564 103 600 129 564 b 269 650 218 564 269 597 b 246 656 269 671 261 667 b 222 671 235 647 222 651 b 301 739 224 696 251 739 b 176 457 401 739 367 490 b 164 432 167 456 161 443 b 185 421 167 422 176 421 b 201 207 360 421 332 207 b 126 311 142 207 115 257 b 100 332 133 339 119 339 b 81 321 93 329 88 325 b 19 107 18 276 -10 178 b 211 -8 49 33 132 -8 b 465 278 379 -8 465 138 b 311 449 465 394 379 449 b 499 669 422 474 499 550 b 318 829 499 813 382 829 z "},"4":{"ha":499,"x_min":0,"x_max":0,"o":"m 303 290 b 283 71 288 232 268 142 b 406 -8 294 15 338 -19 b 424 224 451 -1 397 24 b 489 611 440 354 464 483 b 467 658 493 633 493 649 b 439 665 456 663 447 665 b 407 647 426 665 417 660 b 324 385 371 601 332 410 b 194 356 275 354 251 349 b 381 714 297 415 381 574 b 286 831 381 801 336 831 b 182 692 192 831 168 736 b 206 692 186 678 196 676 b 224 700 210 697 217 700 b 250 657 236 700 250 689 b 50 344 250 538 146 374 b 19 292 26 338 10 318 b 54 275 24 279 38 275 b 100 283 69 275 88 279 b 204 256 131 267 168 256 b 303 290 240 256 275 265 z "},"5":{"ha":482,"x_min":0,"x_max":0,"o":"m 185 508 b 192 565 182 507 189 538 b 204 675 197 610 201 663 b 225 669 207 696 207 685 b 336 633 258 643 297 633 b 399 640 357 633 378 636 b 471 804 471 657 506 740 b 442 831 464 817 456 828 b 422 810 425 833 426 817 b 310 751 399 771 353 751 b 218 792 274 751 239 764 b 172 818 206 807 196 825 b 131 764 144 811 132 793 b 89 460 125 669 110 543 b 93 432 85 440 85 432 b 114 438 97 432 104 433 b 192 456 140 447 163 456 b 178 197 350 456 314 197 b 113 253 138 197 103 229 b 100 285 121 272 114 285 b 79 278 93 285 86 282 b 1 140 44 258 1 224 b 193 -10 1 39 88 -10 b 454 314 350 -10 454 150 b 185 508 454 460 342 531 z "},"6":{"ha":497,"x_min":0,"x_max":0,"o":"m 183 449 b 349 715 217 647 288 715 b 414 661 401 715 410 671 b 428 650 417 653 421 650 b 451 668 436 650 447 658 b 356 826 501 785 440 826 b 172 725 268 826 214 772 b 39 288 72 613 39 435 b 219 -7 39 190 57 -7 b 456 351 399 -7 456 218 b 317 533 456 475 388 533 b 183 449 267 533 214 504 z m 244 194 b 285 449 156 194 175 449 b 244 194 363 449 344 194 z "},"7":{"ha":454,"x_min":0,"x_max":0,"o":"m 364 710 b 57 124 264 538 57 318 b 193 0 57 28 106 0 b 243 158 240 0 229 42 b 486 749 272 385 363 561 b 483 803 497 767 499 786 b 458 815 476 811 468 815 b 438 808 451 815 444 813 b 315 764 383 775 346 764 b 144 801 258 764 224 801 b 40 699 79 801 40 750 b 151 604 40 636 103 597 b 172 628 165 607 182 611 b 235 692 153 668 186 699 b 364 710 278 686 321 689 z "},"8":{"ha":492,"x_min":0,"x_max":0,"o":"m 1 194 b 188 -14 1 103 47 -14 b 318 435 403 -14 529 204 b 476 668 419 506 476 560 b 286 824 476 760 406 824 b 161 426 79 824 24 554 b 1 194 72 368 1 268 z m 256 500 b 286 746 172 585 193 746 b 256 500 365 746 382 582 z m 193 129 b 222 351 76 129 150 292 b 193 129 263 301 343 129 z "},"9":{"ha":501,"x_min":0,"x_max":0,"o":"m 326 381 b 164 165 306 268 256 165 b 85 203 121 165 97 188 b 61 217 78 211 69 217 b 39 196 51 217 43 210 b 185 -10 10 96 65 -10 b 458 560 418 -10 458 418 b 275 828 458 726 415 828 b 211 310 33 828 -57 310 b 326 381 244 310 301 338 z m 283 726 b 238 417 394 726 349 417 b 283 726 149 417 183 726 z "},"\r":{"ha":347,"x_min":0,"x_max":0,"o":""}," ":{"ha":335,"x_min":0,"x_max":0,"o":""},"z":{"ha":369,"x_min":0,"x_max":0,"o":"m 0 -89 b 111 -174 17 -136 61 -169 b 238 253 331 -187 392 138 b 338 386 296 278 338 336 b 201 453 338 457 250 457 b 101 443 168 450 135 443 b 35 454 79 443 57 446 b 19 440 21 460 19 454 b 32 408 19 428 24 417 b 10 247 31 368 22 283 b 19 199 -1 217 3 204 b 53 219 38 193 49 203 b 76 385 68 283 76 351 b 125 379 90 381 107 379 b 190 386 149 379 174 382 b 221 369 206 389 221 386 b 185 286 221 332 203 292 b 139 296 168 293 153 296 b 96 260 113 296 96 283 b 185 235 96 233 157 228 b 136 17 246 161 217 17 b 53 64 82 17 74 64 b 39 58 49 64 44 63 b 0 -89 4 32 -15 -42 z "},"a":{"ha":443,"x_min":0,"x_max":0,"o":"m 236 111 b 333 0 242 58 269 0 b 488 186 419 0 469 108 b 486 272 492 206 517 272 b 444 222 458 272 451 238 b 386 151 419 165 400 149 b 397 400 342 161 393 364 b 342 449 401 429 378 442 b 272 390 293 457 285 429 b 183 451 260 426 233 451 b 99 0 -8 451 -72 0 b 236 111 169 0 221 72 z m 221 368 b 164 157 282 368 215 157 b 221 368 101 157 153 368 z "},"b":{"ha":460,"x_min":0,"x_max":0,"o":"m 150 351 b 167 451 157 403 160 415 b 224 818 314 525 369 818 b -3 196 53 818 11 315 b 67 -10 -8 144 -14 -10 b 143 21 96 -10 140 -17 b 149 43 144 38 146 43 b 221 0 157 43 175 0 b 408 279 367 0 408 164 b 282 454 408 382 376 454 b 150 351 203 454 167 394 z m 178 514 b 243 715 190 578 217 715 b 178 514 276 715 231 543 z m 251 369 b 185 142 313 369 281 142 b 251 369 124 142 179 369 z "},"c":{"ha":349,"x_min":0,"x_max":0,"o":"m -1 179 b 179 0 -7 31 114 0 b 393 186 314 0 375 108 b 392 272 397 206 422 272 b 350 222 364 272 357 238 b 208 139 315 142 256 139 b 129 213 156 139 129 175 b 219 369 129 257 157 369 b 244 349 228 369 244 367 b 246 313 244 329 233 319 b 293 344 268 300 289 333 b 201 461 321 406 278 461 b -1 179 60 461 4 296 z "},"d":{"ha":443,"x_min":0,"x_max":0,"o":"m 244 122 b 333 0 244 56 290 0 b 488 186 419 0 469 108 b 486 272 492 206 517 272 b 444 222 458 272 451 238 b 394 151 425 176 408 151 b 454 683 340 153 442 619 b 404 744 460 714 440 738 b 339 708 365 753 347 744 b 274 404 315 608 294 507 b 190 457 264 439 235 457 b -1 151 81 457 -1 349 b 115 0 -1 83 26 0 b 244 122 179 0 226 78 z m 208 372 b 161 158 267 372 240 158 b 208 372 83 158 142 372 z "},"e":{"ha":342,"x_min":0,"x_max":0,"o":"m -3 178 b 176 0 -3 133 39 0 b 385 186 258 0 356 60 b 385 272 389 206 414 272 b 342 222 356 272 349 238 b 214 139 310 149 244 139 b 132 260 136 139 122 213 b 175 244 139 251 157 244 b 292 371 265 244 290 329 b 204 453 294 421 258 453 b -3 178 81 453 -3 315 z m 208 382 b 175 296 240 382 210 296 b 208 382 139 296 172 382 z "},"f":{"ha":275,"x_min":0,"x_max":0,"o":"m -3 182 b -42 -129 -21 86 -42 -32 b 81 -304 -42 -267 10 -304 b 183 126 214 -304 235 -11 b 228 114 196 118 211 114 b 319 186 267 114 308 139 b 318 272 324 206 349 272 b 276 222 290 272 283 238 b 233 193 268 203 253 193 b 132 261 206 193 168 214 b 214 681 150 358 196 583 b 164 746 221 719 207 738 b 99 704 132 753 106 744 b -3 182 69 563 28 351 z m 113 149 b 104 -100 122 118 150 -100 b 113 149 71 -100 108 113 z "},"g":{"ha":429,"x_min":0,"x_max":0,"o":"m 236 111 b 100 -97 243 46 190 -97 b 39 -53 51 -97 60 -53 b 122 -303 -49 -53 -82 -303 b 356 144 328 -303 361 3 b 397 400 351 258 393 364 b 342 449 401 429 378 442 b 272 390 292 457 285 429 b 183 451 260 426 233 451 b 99 0 -8 451 -72 0 b 236 111 169 0 221 72 z m 221 368 b 165 157 282 368 215 157 b 221 368 101 157 153 368 z "},"h":{"ha":461,"x_min":0,"x_max":0,"o":"m 263 367 b 249 118 313 367 249 239 b 342 0 249 74 258 0 b 506 186 436 0 488 108 b 504 272 510 206 535 272 b 463 222 476 272 469 238 b 404 151 439 165 418 151 b 406 331 365 151 406 256 b 301 454 406 397 393 454 b 150 351 218 454 167 394 b 167 451 157 403 158 415 b 224 818 314 525 369 818 b -3 196 53 818 11 315 b 67 -10 -8 144 -19 -10 b 151 139 142 -10 138 42 b 263 367 167 251 208 367 z m 178 514 b 243 715 190 578 217 715 b 178 514 276 715 231 543 z "},"i":{"ha":206,"x_min":0,"x_max":0,"o":"m 208 572 b 156 647 211 614 189 644 b 82 571 121 650 86 614 b 136 496 79 531 103 499 b 208 572 174 493 204 526 z m -1 131 b 96 0 -1 65 32 0 b 250 186 182 0 232 108 b 249 272 254 206 279 272 b 207 222 221 272 214 238 b 149 151 182 165 163 149 b 160 400 104 161 156 364 b 104 449 164 429 140 442 b 43 414 65 456 53 440 b -1 131 40 407 -1 254 z "},"j":{"ha":186,"x_min":0,"x_max":0,"o":"m 206 572 b 153 647 208 614 188 644 b 79 571 118 650 83 614 b 133 496 76 531 100 499 b 206 572 171 493 201 526 z m 35 390 b -7 122 7 300 -6 142 b -137 -97 -14 -10 -47 -97 b -199 -53 -187 -97 -178 -53 b -115 -303 -286 -53 -319 -303 b 122 139 90 -303 115 -42 b 160 400 128 293 156 364 b 104 449 164 429 140 442 b 35 390 54 457 47 429 z "},"k":{"ha":414,"x_min":0,"x_max":0,"o":"m 67 -10 b 133 97 119 -10 131 15 b 172 193 133 135 139 193 b 204 157 188 193 201 188 b 319 0 213 71 233 0 b 458 186 392 0 442 113 b 457 272 463 206 488 272 b 415 222 429 272 422 238 b 365 154 399 182 383 154 b 339 196 347 154 342 185 b 229 286 313 286 263 289 b 296 344 251 324 269 344 b 314 332 306 344 314 340 b 326 321 314 322 318 321 b 304 451 376 321 414 451 b 151 315 243 451 185 388 b 168 453 157 364 161 397 b 224 818 315 526 369 818 b -3 196 53 818 11 315 b 67 -10 -8 144 -19 -10 z m 178 514 b 243 715 190 578 217 715 b 178 514 276 715 231 543 z "},"l":{"ha":235,"x_min":0,"x_max":0,"o":"m 182 151 b 158 385 119 151 151 331 b 304 647 218 406 282 529 b 224 818 333 793 272 818 b -3 196 53 818 11 315 b 111 0 -21 39 57 0 b 283 186 214 0 265 108 b 282 272 288 206 313 272 b 240 222 254 272 247 238 b 182 151 215 165 196 151 z m 168 440 b 249 715 182 506 210 715 b 168 440 282 715 222 463 z "},"m":{"ha":617,"x_min":0,"x_max":0,"o":"m 151 342 b 101 451 157 417 176 451 b 36 411 82 451 44 449 b -3 153 18 326 1 240 b 56 0 -12 31 -6 0 b 131 156 99 0 106 24 b 224 338 147 239 172 338 b 203 78 257 338 203 142 b 269 0 203 32 211 0 b 333 57 310 0 332 29 b 432 338 343 163 357 338 b 418 96 464 338 410 231 b 507 0 422 38 450 0 b 661 186 593 0 643 108 b 660 272 665 206 690 272 b 618 222 632 272 625 238 b 565 147 614 213 589 147 b 549 260 521 147 547 244 b 478 450 561 346 592 450 b 351 342 417 450 368 382 b 283 449 356 397 338 447 b 151 342 224 451 182 399 z "},"n":{"ha":429,"x_min":0,"x_max":0,"o":"m 231 353 b 226 118 281 353 226 254 b 319 0 226 49 261 0 b 472 186 406 0 456 108 b 472 272 476 206 501 272 b 429 222 443 272 436 238 b 378 149 426 213 401 149 b 360 260 332 149 358 244 b 275 450 372 346 390 450 b 153 350 218 450 171 389 b 158 411 154 371 158 392 b 101 451 158 447 133 451 b 36 411 82 451 44 449 b -3 153 18 326 1 240 b 56 0 -12 31 -6 0 b 111 64 96 0 107 31 b 231 353 128 171 160 353 z "},"o":{"ha":379,"x_min":0,"x_max":0,"o":"m 304 189 b 196 454 328 300 331 454 b -1 171 72 454 -1 319 b 142 -1 -1 53 56 -1 b 279 111 171 -1 228 17 b 324 100 294 103 308 100 b 422 186 371 100 411 138 b 422 272 426 206 451 272 b 379 222 393 272 386 238 b 329 175 376 215 364 175 b 304 189 319 175 308 183 z m 169 149 b 208 375 83 149 131 375 b 251 249 242 375 264 333 b 214 268 246 256 233 268 b 196 161 167 268 149 199 b 169 149 189 154 176 149 z "},"p":{"ha":439,"x_min":0,"x_max":0,"o":"m 160 378 b 117 447 163 404 165 438 b 35 401 76 456 42 450 b -26 -18 13 244 -14 133 b 10 -300 -43 -231 -81 -299 b 83 -193 74 -301 75 -274 b 113 71 99 -39 106 7 b 200 0 122 19 178 0 b 386 232 299 0 374 96 b 268 450 397 340 374 450 b 160 378 214 450 174 415 z m 239 375 b 188 140 300 375 269 140 b 146 224 160 140 139 169 b 239 375 156 304 200 375 z "},"q":{"ha":461,"x_min":0,"x_max":0,"o":"m 208 81 b 188 -129 197 10 188 -65 b 310 -304 188 -267 239 -304 b 388 132 443 -304 461 -14 b 422 122 394 126 408 122 b 506 186 453 122 492 139 b 504 272 510 204 535 272 b 463 222 476 272 469 238 b 425 196 456 204 440 196 b 361 261 400 196 371 217 b 383 382 379 358 367 286 b 342 444 392 422 385 436 b 313 449 331 447 321 449 b 269 407 288 449 275 436 b 183 451 251 432 224 451 b 99 0 -8 451 -72 0 b 208 81 144 0 182 40 z m 221 368 b 165 157 282 368 215 157 b 221 368 101 157 153 368 z m 342 149 b 333 -100 351 118 379 -100 b 342 149 300 -100 338 113 z "},"r":{"ha":333,"x_min":0,"x_max":0,"o":"m 156 340 b 118 139 153 281 119 213 b 225 1 118 71 139 1 b 378 186 310 1 360 108 b 376 272 382 206 407 272 b 335 222 349 272 342 238 b 276 151 326 201 304 151 b 276 353 236 151 276 288 b 149 453 276 446 204 453 b 88 458 119 453 94 451 b 50 517 89 501 68 517 b 32 410 -1 517 -17 440 b 10 247 32 374 24 286 b 19 199 -1 217 3 204 b 53 219 38 193 49 203 b 75 393 72 297 81 375 b 156 340 117 386 158 413 z "},"s":{"ha":360,"x_min":0,"x_max":0,"o":"m 304 154 b 222 324 304 244 256 285 b 242 396 189 361 206 396 b 306 356 276 396 288 356 b 235 460 343 356 376 460 b 119 256 139 460 56 379 b 115 151 160 179 131 151 b 61 244 71 151 56 211 b 43 272 64 260 58 272 b 0 149 0 272 0 167 b 147 -8 0 64 60 -8 b 304 154 229 -8 304 46 z "},"t":{"ha":228,"x_min":0,"x_max":0,"o":"m 24 447 b 0 421 10 447 3 435 b 4 400 -3 410 -4 400 b 29 400 4 400 14 400 b 113 0 4 289 -53 0 b 271 186 199 0 254 108 b 271 272 276 206 300 272 b 168 151 219 272 232 151 b 135 254 138 153 129 196 b 154 400 138 297 146 350 b 204 400 175 400 193 400 b 235 418 219 400 231 401 b 228 447 243 444 236 447 l 163 447 b 190 585 174 511 186 564 b 140 647 196 617 176 639 b 75 611 101 656 83 647 b 39 447 54 524 54 524 z "},"u":{"ha":421,"x_min":0,"x_max":0,"o":"m 214 111 b 311 0 219 58 247 0 b 465 186 397 0 447 108 b 464 272 469 206 494 272 b 422 222 436 272 429 238 b 364 151 397 165 378 149 b 375 400 319 161 371 364 b 319 449 379 429 356 442 b 250 390 271 457 258 429 b 151 157 215 224 203 157 b 167 406 97 157 167 361 b 114 451 167 425 164 444 b 13 278 42 463 49 431 b 93 0 -17 153 0 0 b 214 111 151 0 199 72 z "},"v":{"ha":354,"x_min":0,"x_max":0,"o":"m 0 135 b 86 0 0 43 54 0 b 250 131 160 0 215 65 b 306 115 268 121 288 115 b 397 186 347 115 385 142 b 397 272 403 204 426 272 b 354 222 368 272 361 238 b 315 189 344 199 331 189 b 282 203 304 189 292 194 b 285 210 283 206 283 208 b 339 422 301 260 336 386 b 324 465 340 440 336 454 b 293 479 315 472 303 479 b 269 453 282 479 272 472 b 225 243 261 410 251 306 b 182 183 192 257 165 225 b 144 161 174 169 163 161 b 158 383 99 161 153 353 b 107 447 163 415 154 436 b 42 408 65 457 50 443 b 0 135 21 311 0 214 z "},"w":{"ha":568,"x_min":0,"x_max":0,"o":"m 215 101 b 300 0 226 33 272 0 b 464 131 374 0 429 65 b 519 115 482 121 501 115 b 611 186 561 115 599 142 b 611 272 617 204 640 272 b 568 222 582 272 575 238 b 529 189 558 199 544 189 b 496 203 518 189 506 194 b 499 210 497 206 497 208 b 553 422 515 260 550 386 b 538 465 554 440 550 454 b 507 479 529 472 517 479 b 483 453 496 479 486 472 b 439 243 475 410 465 306 b 396 183 406 257 379 225 b 358 161 388 169 376 161 b 372 383 313 161 367 353 b 321 447 378 415 368 436 b 256 408 279 457 264 443 b 224 247 244 354 232 299 b 215 221 221 238 218 229 b 157 157 201 176 185 157 b 172 406 103 157 172 361 b 119 451 172 425 169 444 b 18 278 47 463 54 431 b 99 0 -11 153 6 0 b 215 101 153 0 197 61 z "},"x":{"ha":418,"x_min":0,"x_max":0,"o":"m 296 1 b 461 186 393 1 444 108 b 461 272 465 206 490 272 b 419 222 432 272 425 238 b 321 151 410 201 381 151 b 246 221 265 151 246 190 b 339 375 246 306 303 375 b 335 353 350 375 350 357 b 344 319 324 349 315 319 b 411 393 392 319 411 364 b 349 453 411 447 368 453 b 218 328 292 453 243 415 b 88 458 206 396 175 463 b 50 517 89 501 68 517 b 32 410 -1 517 -17 440 b 10 247 32 374 24 286 b 19 199 -1 217 3 204 b 53 219 38 193 49 203 b 75 394 72 297 81 375 b -3 43 156 389 172 97 b -25 19 -29 36 -28 28 b 43 -18 -18 3 8 -18 b 164 106 85 -18 125 42 b 296 1 182 46 218 1 z "},"y":{"ha":413,"x_min":0,"x_max":0,"o":"m 349 160 b 381 400 353 247 376 368 b 325 449 385 429 361 442 b 256 390 276 457 264 429 b 157 157 221 224 208 157 b 172 406 103 157 172 361 b 119 451 172 425 169 444 b 18 278 47 461 54 431 b 99 0 -11 153 6 0 b 219 110 157 0 203 69 b 89 -97 210 -15 176 -97 b 28 -53 40 -97 49 -53 b 113 -303 -60 -53 -93 -303 b 349 160 336 -303 343 -1 z "},"Z":{"ha":699,"x_min":0,"x_max":0,"o":"m 675 663 b 401 394 560 613 483 529 b 321 394 376 394 356 394 b 293 351 296 394 271 353 b 378 351 313 351 356 351 b 204 118 338 283 292 171 b 113 132 172 128 146 132 b 1 50 58 132 1 103 b 86 -14 1 6 39 -15 b 213 24 125 -14 178 7 b 511 -122 261 10 364 -129 b 656 11 600 -118 656 -56 b 593 117 656 83 617 117 b 575 100 583 117 576 111 b 493 36 572 63 554 36 b 296 79 446 36 332 60 b 546 351 428 143 535 332 b 642 351 567 351 624 351 b 663 394 658 351 689 394 b 567 394 626 394 585 394 b 790 694 585 421 654 582 b 833 749 811 713 839 721 b 804 788 828 776 819 788 b 768 775 794 788 782 783 b 658 746 731 751 701 746 b 376 800 561 744 475 800 b 203 661 267 800 203 739 b 314 551 203 583 263 551 b 379 574 340 551 364 558 b 382 603 390 583 407 600 b 413 676 344 607 346 676 b 608 656 503 676 543 656 b 675 663 628 656 649 658 z "},"A":{"ha":764,"x_min":0,"x_max":0,"o":"m 149 -54 b 406 149 278 -54 353 36 b 578 268 436 215 500 251 b 722 -129 561 135 519 -147 b 789 -68 756 -125 800 -96 b 732 6 782 -54 760 -78 b 771 711 679 158 696 425 b 678 789 785 768 736 779 b 563 799 640 794 601 799 b 346 751 488 799 411 785 b 247 619 299 726 250 678 b 325 528 246 579 275 533 b 439 614 393 521 436 571 b 392 619 440 646 417 600 b 525 739 364 642 404 722 b 610 732 557 743 600 740 b 400 443 542 721 476 629 b 172 203 363 351 308 203 b 126 244 139 203 121 222 b 115 275 131 265 126 275 b 93 268 110 275 101 272 b 149 -54 -43 204 -31 -54 z m 653 682 b 592 351 672 682 638 640 b 474 328 564 349 496 336 b 653 682 489 383 592 686 z "},"B":{"ha":767,"x_min":0,"x_max":0,"o":"m 594 414 b 490 800 782 449 858 800 b 161 574 322 800 161 707 b 258 471 161 518 194 471 b 344 564 292 471 342 504 b 331 575 346 575 343 579 b 296 636 289 560 281 603 b 479 739 321 696 403 739 b 457 432 740 739 617 431 b 532 650 465 492 486 631 b 521 703 567 664 560 694 b 403 650 475 711 432 700 b 354 490 372 594 367 551 b 168 186 328 369 301 186 b 111 246 144 186 111 204 b 100 269 111 263 108 269 b 78 261 94 269 88 267 b 1 108 31 236 1 158 b 168 -60 1 0 86 -60 b 332 39 238 -60 300 -18 b 486 -40 357 0 396 -40 b 594 414 751 -40 813 379 z m 474 144 b 444 217 429 144 417 194 b 468 240 451 222 468 231 b 426 258 468 258 447 261 b 449 376 436 293 444 354 b 594 283 521 388 594 374 b 474 144 594 200 553 144 z "},"C":{"ha":522,"x_min":0,"x_max":0,"o":"m 1 319 b 247 -40 -7 133 81 -40 b 497 204 413 -40 469 86 b 489 247 500 217 506 242 b 469 235 478 250 474 242 b 335 158 443 186 389 158 b 176 383 253 158 169 224 b 351 717 186 576 251 717 b 407 635 385 717 407 686 b 313 483 407 513 333 483 b 329 414 281 483 282 432 b 372 406 343 408 358 406 b 522 611 450 406 522 483 b 354 800 522 750 424 797 b 1 319 110 811 10 494 z "},"D":{"ha":800,"x_min":0,"x_max":0,"o":"m 490 800 b 161 574 322 800 161 707 b 258 471 161 518 194 471 b 344 564 292 471 342 504 b 331 575 346 575 343 579 b 296 636 289 560 281 603 b 479 739 321 696 403 739 b 633 417 621 739 664 650 b 474 144 615 278 563 144 b 444 217 429 144 417 194 b 468 240 451 222 468 231 b 426 258 468 258 447 261 b 532 650 447 332 467 622 b 521 703 567 664 560 694 b 403 650 475 711 432 700 b 354 490 372 594 367 551 b 168 186 328 369 301 186 b 111 246 144 186 111 204 b 100 269 111 263 108 269 b 78 261 94 269 88 267 b 1 108 31 236 1 158 b 168 -60 1 0 86 -60 b 332 39 238 -60 300 -18 b 486 -40 357 0 396 -40 b 765 439 618 -40 736 108 b 490 800 783 650 696 800 z "},"E":{"ha":529,"x_min":0,"x_max":0,"o":"m 438 363 b 271 415 451 414 308 418 b 386 717 175 528 267 717 b 358 542 476 717 447 542 b 344 493 325 542 325 513 b 411 464 364 474 388 464 b 543 638 476 464 543 532 b 392 800 543 728 490 800 b 178 397 153 801 13 536 b 247 -60 -83 310 -51 -60 b 515 208 397 -60 496 72 b 501 233 517 218 514 231 b 481 217 489 236 485 226 b 324 110 460 169 403 110 b 214 208 254 110 214 161 b 275 344 214 285 257 326 b 376 322 319 329 353 322 b 438 363 415 322 431 339 z "},"F":{"ha":638,"x_min":0,"x_max":0,"o":"m 776 801 b 738 776 774 783 761 776 b 490 800 693 776 611 800 b 161 574 322 800 161 707 b 258 471 161 518 194 471 b 344 564 292 471 342 504 b 331 575 346 575 343 579 b 296 636 289 560 281 603 b 479 739 321 696 403 739 b 760 661 615 739 668 661 b 846 747 821 661 846 713 b 793 815 846 790 814 815 b 776 801 785 815 778 811 z m 168 -60 b 417 232 313 -60 378 78 b 549 367 429 282 496 367 b 578 346 569 367 576 351 b 585 340 579 342 581 340 b 631 386 597 340 621 361 b 578 471 644 424 629 471 b 449 386 533 471 482 438 b 532 650 472 517 489 632 b 521 703 567 664 560 694 b 404 650 475 711 432 700 b 354 490 372 594 367 551 b 168 186 328 369 301 186 b 111 246 144 186 111 204 b 100 269 111 263 108 269 b 78 261 94 269 88 267 b 1 108 31 236 1 158 b 168 -60 1 0 86 -60 z "},"G":{"ha":533,"x_min":0,"x_max":0,"o":"m 390 386 b 390 319 399 376 401 354 b 269 228 369 250 319 228 b 171 422 211 228 163 288 b 346 717 181 565 246 721 b 367 603 392 714 396 656 b 290 482 289 624 240 525 b 332 467 303 471 317 467 b 419 517 364 467 397 489 b 492 499 439 504 465 499 b 604 583 546 499 601 525 b 551 640 606 618 581 640 b 522 633 542 640 532 638 b 508 613 510 626 501 621 b 469 560 529 590 507 560 b 442 565 461 560 451 561 b 349 800 514 750 418 797 b 211 42 -22 817 -140 42 b 375 156 282 42 344 92 b 218 -53 344 31 286 -53 b 142 0 182 -53 158 -40 b 111 0 138 13 122 10 b 204 -239 24 -78 43 -239 b 485 275 450 -239 471 110 b 510 397 489 317 493 376 b 493 422 525 415 517 425 b 413 419 467 419 440 418 b 375 410 399 421 375 425 b 390 386 375 403 381 400 z "},"H":{"ha":756,"x_min":0,"x_max":0,"o":"m 168 -60 b 388 126 283 -60 346 25 b 568 267 419 206 496 247 b 713 -129 547 131 511 -147 b 779 -68 746 -125 790 -96 b 721 6 772 -54 750 -78 b 761 711 669 158 686 425 b 761 792 775 768 786 786 b 656 707 719 801 674 768 b 582 351 636 632 608 511 b 436 315 546 349 485 336 b 549 731 451 399 493 714 b 574 761 558 733 574 736 b 490 800 574 789 538 800 b 161 574 322 800 161 707 b 258 471 161 518 194 471 b 344 564 292 471 342 504 b 331 575 346 575 343 579 b 296 636 289 560 281 603 b 442 735 317 686 378 724 b 413 700 432 726 421 715 b 354 490 382 644 367 551 b 168 186 328 369 301 186 b 111 246 144 186 111 204 b 100 269 111 263 108 269 b 78 261 94 269 88 267 b 1 108 31 236 1 158 b 168 -60 1 0 86 -60 z "},"I":{"ha":486,"x_min":0,"x_max":0,"o":"m 168 -60 b 549 731 521 -60 432 694 b 574 761 558 733 574 736 b 490 800 574 789 538 800 b 161 574 322 800 161 707 b 258 471 161 518 194 471 b 344 564 292 471 342 504 b 331 575 346 575 343 579 b 296 636 289 560 281 603 b 442 735 317 686 378 724 b 413 700 432 726 421 715 b 354 490 382 644 367 551 b 168 186 328 369 301 186 b 111 246 144 186 111 204 b 100 269 111 263 108 269 b 78 261 94 269 88 267 b 1 108 31 236 1 158 b 168 -60 1 0 86 -60 z "},"J":{"ha":486,"x_min":0,"x_max":0,"o":"m 161 -201 b 549 731 514 -201 432 694 b 574 761 558 733 574 736 b 490 800 574 789 538 800 b 161 574 322 800 161 707 b 258 471 161 518 194 471 b 344 564 292 471 342 504 b 331 575 346 575 343 579 b 296 636 289 560 281 603 b 442 735 317 686 378 724 b 413 700 432 726 421 715 b 354 490 382 644 367 551 b 161 44 328 369 296 44 b 104 104 139 44 104 63 b 93 128 104 121 101 128 b 72 119 88 128 82 125 b -6 -33 24 94 -6 17 b 161 -201 -6 -142 79 -201 z "},"K":{"ha":743,"x_min":0,"x_max":0,"o":"m 168 -60 b 460 399 368 -60 426 182 b 507 121 569 356 511 192 b 649 -104 499 -11 556 -104 b 763 -17 743 -104 779 -35 b 689 65 754 -6 715 -24 b 565 431 654 186 710 350 b 810 704 669 481 810 572 b 713 790 810 760 761 790 b 664 779 696 790 679 788 b 653 754 654 774 642 771 b 469 461 732 643 561 497 b 549 731 490 601 506 717 b 574 761 558 733 574 736 b 490 800 574 789 538 800 b 161 574 322 800 161 707 b 258 471 161 518 194 471 b 344 564 292 471 342 504 b 331 575 346 575 343 579 b 296 636 289 560 281 603 b 442 735 317 686 378 724 b 413 700 432 726 421 715 b 354 490 382 644 367 551 b 168 186 328 369 301 186 b 111 246 144 186 111 204 b 100 269 111 263 108 269 b 78 261 94 269 88 267 b 1 108 31 236 1 158 b 168 -60 1 0 86 -60 z "},"L":{"ha":621,"x_min":0,"x_max":0,"o":"m 251 494 b 156 381 204 489 156 449 b 290 268 157 317 215 268 b 344 276 307 268 325 271 b 278 153 336 221 307 188 b 124 199 235 179 176 199 b 1 79 57 199 1 167 b 189 -76 1 0 72 -76 b 331 -19 208 -76 267 -81 b 485 -86 378 -58 436 -86 b 544 150 654 -86 675 126 b 522 138 531 151 515 151 b 472 58 538 107 522 58 b 408 76 447 58 426 64 b 482 354 457 151 482 236 b 640 697 621 489 640 628 b 522 808 640 793 564 808 b 354 397 336 808 360 481 b 272 469 282 379 243 431 b 251 494 282 482 271 496 z m 475 456 b 535 740 474 499 479 740 b 475 456 583 740 536 508 z m 200 79 b 128 53 174 60 149 53 b 86 82 103 53 86 64 b 118 108 86 101 100 108 b 200 79 144 108 179 94 z "},"M":{"ha":1061,"x_min":0,"x_max":0,"o":"m 168 -60 b 418 176 307 -60 382 60 b 626 631 514 483 575 631 b 596 313 686 631 615 424 b 560 78 585 247 561 149 b 649 24 558 25 590 24 b 706 71 688 24 697 40 b 904 631 753 274 824 631 b 883 385 954 631 901 482 b 971 -132 861 258 756 -132 b 1100 -36 1044 -132 1090 -74 b 1090 -18 1103 -29 1108 -18 b 1033 428 938 -12 1014 328 b 982 768 1089 726 1047 768 b 760 524 875 768 817 651 b 690 768 785 664 796 768 b 476 508 615 768 542 683 b 550 731 494 632 508 718 b 575 761 558 733 575 736 b 492 800 575 789 539 800 b 163 574 322 800 163 707 b 258 471 163 518 196 471 b 346 564 293 471 342 504 b 332 575 346 575 343 579 b 296 636 289 560 282 603 b 442 735 317 686 378 724 b 414 700 432 726 422 715 b 354 490 382 644 367 551 b 168 186 328 369 303 186 b 111 246 146 186 111 204 b 100 269 111 263 108 269 b 79 261 94 269 89 267 b 1 108 31 236 1 158 b 168 -60 1 0 86 -60 z "},"N":{"ha":808,"x_min":0,"x_max":0,"o":"m 168 -60 b 642 624 467 -60 496 624 b 626 385 704 624 657 510 b 710 -132 596 261 494 -132 b 839 -36 783 -132 829 -74 b 829 -18 840 -29 847 -18 b 776 428 676 -12 753 328 b 717 768 847 731 808 768 b 471 461 614 768 517 626 b 550 731 479 524 496 714 b 575 761 558 733 575 736 b 492 800 575 789 539 800 b 163 574 322 800 163 707 b 258 471 163 518 196 471 b 346 564 293 471 342 504 b 332 575 346 575 343 579 b 296 636 289 560 282 603 b 442 735 317 686 378 724 b 414 700 432 726 422 715 b 354 490 382 644 367 551 b 168 186 328 369 303 186 b 111 246 146 186 111 204 b 100 269 111 263 108 269 b 79 261 94 269 89 267 b 1 108 31 236 1 158 b 168 -60 1 0 86 -60 z m 386 94 l 389 110 b 386 94 386 103 386 97 z "},"O":{"ha":583,"x_min":0,"x_max":0,"o":"m 460 560 b 374 801 565 633 554 801 b 250 -68 -12 801 -168 -68 b 553 357 397 -68 553 114 b 460 560 553 435 536 526 z m 296 133 b 385 718 83 133 194 718 b 401 567 469 718 442 617 b 360 506 322 560 324 507 b 456 346 411 506 464 433 b 296 133 447 240 396 133 z "},"P":{"ha":706,"x_min":0,"x_max":0,"o":"m 425 257 b 490 800 769 206 888 800 b 161 574 322 800 161 707 b 258 471 161 518 194 471 b 344 564 292 471 342 504 b 331 575 346 575 343 579 b 296 636 289 560 281 603 b 479 739 321 696 403 739 b 436 326 740 739 615 293 b 532 650 444 386 486 631 b 521 703 567 664 560 694 b 403 650 475 711 432 700 b 354 490 372 594 367 551 b 168 186 328 369 301 186 b 111 246 144 186 111 204 b 100 269 111 263 108 269 b 78 261 94 269 88 267 b 1 108 31 236 1 158 b 168 -60 1 0 86 -60 b 425 257 339 -60 399 149 z "},"Q":{"ha":589,"x_min":0,"x_max":0,"o":"m 460 560 b 374 801 565 633 554 801 b 250 -68 -12 801 -168 -68 b 319 -54 274 -68 296 -62 b 481 -137 353 -96 404 -137 b 594 -40 560 -137 594 -87 b 526 26 594 10 556 26 b 496 4 503 26 485 15 b 453 -47 514 -14 497 -47 b 390 -15 425 -47 401 -31 b 553 357 482 56 553 192 b 460 560 553 435 536 526 z m 296 133 b 385 718 83 133 194 718 b 401 567 469 718 442 617 b 360 506 322 560 324 507 b 456 346 411 506 464 433 b 296 133 447 240 396 133 z "},"R":{"ha":725,"x_min":0,"x_max":0,"o":"m 443 353 b 490 121 518 342 494 176 b 632 -104 482 -11 540 -104 b 746 -17 726 -104 763 -35 b 674 65 738 -6 699 -24 b 574 360 644 163 643 290 b 490 800 806 431 832 800 b 161 574 322 800 161 707 b 258 471 161 518 194 471 b 344 564 292 471 342 504 b 331 575 346 575 343 579 b 296 636 289 560 281 603 b 479 739 321 696 403 739 b 454 421 740 739 635 388 b 532 650 464 481 486 631 b 521 703 567 664 560 694 b 404 650 475 711 432 700 b 354 490 372 594 367 551 b 168 186 328 369 301 186 b 111 246 144 186 111 204 b 100 269 111 263 108 269 b 78 261 94 269 88 267 b 1 108 31 236 1 158 b 168 -60 1 0 86 -60 b 443 353 339 -60 417 243 z "},"S":{"ha":528,"x_min":0,"x_max":0,"o":"m 1 140 b 243 -68 1 0 125 -68 b 489 224 372 -68 501 32 b 283 603 478 414 283 436 b 381 714 283 694 343 714 b 393 557 486 714 461 546 b 428 507 360 564 363 513 b 560 646 497 501 560 558 b 382 801 560 749 479 801 b 151 582 278 801 151 738 b 296 310 151 472 243 393 b 240 126 342 236 325 132 b 196 229 185 124 160 194 b 235 254 211 243 233 239 b 139 311 236 289 192 314 b 1 140 57 306 1 229 z "},"T":{"ha":479,"x_min":0,"x_max":0,"o":"m 846 807 b 717 744 846 764 796 744 b 567 761 674 744 624 750 b 515 796 553 785 536 796 b 474 782 503 796 489 792 b 310 806 411 797 356 806 b 113 650 181 806 113 747 b 215 554 113 601 151 554 b 308 647 256 554 306 589 b 294 658 308 658 306 664 b 263 703 258 643 250 681 b 329 731 274 722 297 731 b 418 718 354 731 385 725 b 354 490 389 658 365 547 b 168 186 328 369 301 186 b 111 246 144 186 111 204 b 100 269 111 263 108 269 b 78 261 94 269 88 267 b 1 108 31 236 1 158 b 168 -60 1 0 86 -60 b 465 476 397 -60 432 304 b 521 692 478 543 494 639 b 789 646 646 660 699 646 b 921 747 890 646 921 713 b 864 822 921 797 886 822 b 846 807 853 822 846 817 z "},"U":{"ha":640,"x_min":0,"x_max":0,"o":"m 454 204 b 582 -69 433 67 454 -69 b 653 0 658 -69 681 1 b 590 106 615 -3 592 74 b 668 701 572 339 642 586 b 594 803 686 781 663 789 b 529 758 560 810 533 799 b 286 144 515 639 438 144 b 319 664 176 146 319 522 b 179 800 319 763 253 800 b -14 629 90 800 -14 749 b 61 544 -14 567 21 544 b 121 618 126 544 146 624 b 92 643 106 614 92 624 b 168 742 92 685 115 742 b 168 506 258 742 176 532 b 64 156 146 440 64 289 b 233 -40 64 96 81 -40 b 454 204 344 -40 435 121 z "},"V":{"ha":615,"x_min":0,"x_max":0,"o":"m 233 -40 b 668 701 282 -40 581 125 b 588 851 681 781 656 838 b 539 815 553 858 536 856 b 286 144 561 515 374 144 b 267 371 242 144 239 253 b 319 664 293 479 319 596 b 179 800 319 763 253 800 b -14 629 90 800 -14 749 b 61 544 -14 567 21 544 b 121 618 126 544 146 624 b 92 643 106 614 92 624 b 168 742 92 685 115 742 b 168 506 258 742 176 532 b 92 164 146 440 92 297 b 233 -40 92 61 158 -40 z "},"W":{"ha":938,"x_min":0,"x_max":0,"o":"m 224 -40 b 414 111 290 -40 364 25 b 565 -40 431 29 482 -40 b 990 664 689 -40 921 133 b 897 851 1006 779 965 838 b 849 815 864 858 846 856 b 619 144 871 515 753 143 b 600 371 560 144 571 253 b 642 631 617 442 643 547 b 575 763 640 701 626 726 b 556 769 568 768 561 769 b 519 717 536 769 522 747 b 286 144 506 600 425 143 b 319 664 157 146 319 490 b 179 800 319 763 253 800 b -14 629 90 800 -14 749 b 61 544 -14 567 21 544 b 121 618 126 544 146 624 b 92 643 106 614 92 624 b 168 742 92 685 115 742 b 168 506 258 742 176 532 b 64 156 146 440 64 289 b 224 -40 64 96 88 -40 z "},"X":{"ha":642,"x_min":0,"x_max":0,"o":"m 450 469 b 213 800 407 639 383 800 b 39 644 100 800 39 731 b 135 535 39 574 88 535 b 176 544 150 535 164 538 b 192 586 203 560 221 586 b 207 656 150 586 151 656 b 340 294 297 656 326 349 b 99 53 304 211 207 53 b 35 88 69 53 50 72 b 106 -68 10 115 -53 -68 b 368 167 244 -68 310 49 b 593 -164 383 67 428 -164 b 699 -31 710 -164 721 -50 b 651 -40 686 -21 690 -40 b 483 347 572 -40 493 269 b 681 675 536 499 603 675 b 710 638 721 675 685 639 b 690 800 799 633 832 800 b 450 469 550 800 489 606 z "},"Y":{"ha":642,"x_min":0,"x_max":0,"o":"m 478 318 b 304 -53 463 218 422 -53 b 228 0 268 -53 244 -40 b 197 0 222 13 207 10 b 289 -239 110 -78 129 -239 b 596 364 568 -239 572 164 b 668 701 614 531 647 613 b 594 803 686 781 663 789 b 529 758 560 810 535 799 b 465 429 517 647 497 536 b 310 260 450 379 401 260 b 319 664 214 261 319 522 b 179 800 319 763 253 800 b -14 629 90 800 -14 749 b 61 544 -14 567 21 544 b 121 618 126 544 146 624 b 92 643 106 614 92 624 b 168 742 92 685 115 742 b 168 506 258 742 176 532 b 114 268 146 440 114 338 b 264 92 114 213 146 92 b 478 318 375 92 458 235 z "},"@":{"ha":715,"x_min":0,"x_max":0,"o":"m 400 163 b 471 44 390 129 414 44 b 404 603 707 44 757 603 b 329 -174 -72 603 -108 -174 b 501 -40 424 -174 501 -122 b 453 29 501 1 478 29 b 436 7 435 29 440 19 b 308 -42 421 -42 343 -42 b 396 533 35 -42 83 533 b 511 174 653 533 610 174 b 515 353 467 174 513 326 b 472 406 519 382 503 397 b 422 353 439 414 429 367 b 375 399 425 378 406 399 b 289 43 197 399 164 43 b 400 163 329 43 379 99 z m 378 329 b 332 167 422 329 394 167 b 378 329 288 167 335 329 z "},"&":{"ha":629,"x_min":0,"x_max":0,"o":"m 3 189 b 218 -28 3 25 118 -28 b 394 42 296 -28 363 15 b 338 -58 407 4 401 -58 b 307 -81 311 -58 307 -58 b 401 -158 307 -103 339 -158 b 511 129 543 -158 576 0 b 504 503 776 308 636 532 b 493 476 490 499 469 493 b 447 253 569 422 482 288 b 338 471 421 301 363 422 b 479 700 399 526 476 613 b 353 824 481 761 449 824 b 211 515 222 824 131 703 b 3 189 65 410 3 278 z m 289 575 b 339 704 261 643 271 704 b 289 575 401 704 317 593 z m 253 115 b 254 406 118 111 142 310 b 354 161 275 358 315 260 b 253 115 317 126 276 117 z "},"!":{"ha":332,"x_min":0,"x_max":0,"o":"m 285 510 b 311 667 289 533 304 607 b 268 786 318 733 313 786 b 189 679 221 786 203 742 b 160 518 175 621 164 544 b 183 214 138 361 128 214 b 285 510 224 214 258 356 z m 154 -6 b 167 142 224 -6 235 142 b 154 -6 101 142 94 -6 z "},"?":{"ha":414,"x_min":0,"x_max":0,"o":"m 450 622 b 275 786 450 719 383 786 b 75 626 182 786 92 738 b 138 488 67 564 90 510 b 172 479 149 482 161 479 b 256 547 211 479 249 507 b 239 569 258 561 260 571 b 265 708 185 567 178 708 b 331 618 315 708 331 653 b 153 274 331 464 169 413 b 186 203 151 253 147 203 b 235 253 203 203 222 224 b 450 622 299 399 450 422 z m 165 -6 b 178 142 235 -6 246 142 b 165 -6 113 142 106 -6 z "},"*":{"ha":278,"x_min":0,"x_max":0,"o":"m 197 657 b 192 722 201 672 217 722 b 160 658 161 722 157 692 b 108 675 151 664 126 675 b 90 668 100 675 93 674 b 140 619 78 647 110 628 b 117 544 135 613 65 544 b 172 600 138 544 167 582 b 226 542 179 583 199 542 b 204 615 253 542 239 589 b 268 658 224 618 268 619 b 250 671 268 668 260 671 b 197 657 232 671 207 663 z "},"#":{"ha":676,"x_min":0,"x_max":0,"o":"m 103 319 b 214 289 97 286 113 289 b 240 258 236 289 243 282 b 192 215 238 226 225 215 b 99 181 135 215 100 225 b 186 147 96 139 125 147 b 219 110 215 147 225 140 b 211 29 214 83 206 57 b 250 -7 217 8 229 -6 b 276 29 275 -10 275 13 b 290 122 282 60 286 92 b 324 153 293 142 303 151 b 382 85 392 156 393 154 b 385 18 379 63 375 39 b 424 -7 392 -1 406 -10 b 443 25 442 -6 442 11 b 456 118 447 56 454 88 b 494 153 458 144 469 154 b 583 153 525 151 554 153 b 617 189 604 154 617 167 b 582 217 615 211 601 217 b 507 217 557 217 532 215 b 474 238 493 218 471 211 b 507 290 476 258 468 289 b 589 289 535 292 561 289 b 619 332 622 289 621 311 b 588 358 618 351 607 358 b 517 358 564 358 540 360 b 494 386 497 358 492 365 b 503 476 499 415 501 446 b 471 508 504 497 492 507 b 440 479 451 508 443 499 b 428 393 436 450 429 422 b 364 358 424 351 394 358 b 329 401 328 358 324 364 b 336 468 332 424 335 446 b 310 508 339 489 332 504 b 274 478 286 511 276 500 b 264 414 269 457 267 436 b 200 358 257 358 257 358 b 103 319 135 358 108 367 z m 350 217 b 307 243 321 217 307 213 b 365 289 307 283 315 289 b 408 269 389 289 408 294 b 350 217 410 226 400 217 z "},"$":{"ha":542,"x_min":0,"x_max":0,"o":"m 206 101 b 196 17 201 67 196 38 b 228 -6 196 3 201 -3 b 261 6 242 -7 260 -10 b 269 97 264 35 267 64 b 483 281 379 97 483 169 b 315 482 483 397 407 449 b 343 650 318 511 331 574 b 374 554 404 643 407 582 b 399 521 349 533 372 521 b 426 526 408 521 418 522 b 357 728 528 579 472 707 b 369 799 364 763 367 785 b 354 828 375 821 368 825 b 322 810 336 831 326 826 b 306 735 319 797 317 776 b 121 499 196 738 63 649 b 244 396 149 426 218 408 b 225 250 240 374 232 311 b 125 314 169 256 132 285 b 106 338 121 331 115 338 b 83 329 100 338 93 335 b 61 179 36 300 25 226 b 206 101 106 122 142 115 z m 263 501 b 290 653 204 519 185 632 b 263 501 278 594 269 542 z m 361 306 b 285 246 361 269 329 243 b 301 376 290 294 296 342 b 361 306 333 363 361 338 z "},"%":{"ha":463,"x_min":0,"x_max":0,"o":"m 242 289 b 476 683 318 460 428 632 b 488 711 485 694 493 700 b 443 733 478 728 461 733 b 307 593 379 733 332 638 b 229 771 332 672 303 771 b 165 432 53 771 -6 432 b 218 443 188 432 206 439 b 106 213 185 382 138 281 b 39 36 79 156 57 97 b 85 -33 29 1 47 -26 b 126 7 118 -40 119 -14 b 167 115 138 43 149 79 b 261 -8 168 97 181 -8 b 411 200 361 -8 411 114 b 318 317 410 271 371 317 b 242 289 294 317 268 307 z m 210 674 b 179 531 253 674 232 531 b 210 674 131 531 160 674 z m 318 232 b 285 89 360 232 338 89 b 318 232 240 89 267 232 z "},"(":{"ha":338,"x_min":0,"x_max":0,"o":"m 324 -40 b 481 794 100 26 181 794 b 524 818 507 794 524 804 b 451 857 524 844 493 857 b 315 -104 97 857 -62 -40 b 324 -40 346 -108 368 -54 z "},"{":{"ha":304,"x_min":0,"x_max":0,"o":"m 83 407 b 94 0 190 344 94 111 b 192 -106 94 -65 139 -106 b 222 -101 201 -106 213 -104 b 254 -43 288 -85 290 -37 b 176 407 81 -68 304 329 b 179 419 169 411 171 418 b 265 506 219 424 253 469 b 401 788 294 594 296 788 b 453 779 419 788 439 779 b 467 794 461 779 467 783 b 393 851 467 821 443 851 b 236 708 307 851 257 767 b 90 436 215 646 206 465 b 83 407 72 432 68 415 z "},"[":{"ha":333,"x_min":0,"x_max":0,"o":"m 364 771 b 415 800 388 769 413 764 b 299 846 421 849 389 842 b 232 776 253 847 239 821 b 128 185 211 642 149 319 b 94 -22 117 115 106 47 b 139 -100 89 -64 104 -99 b 274 -57 214 -104 268 -117 b 232 -36 276 -28 247 -36 b 182 17 182 -33 175 -31 b 300 722 207 189 275 549 b 364 771 307 774 313 774 z "},")":{"ha":363,"x_min":0,"x_max":0,"o":"m 92 788 b -65 -47 314 722 235 -47 b -110 -69 -93 -47 -110 -56 b -36 -108 -110 -97 -78 -108 b 99 851 318 -108 476 788 b 92 788 68 857 46 801 z "},"}":{"ha":375,"x_min":0,"x_max":0,"o":"m 324 325 b 313 732 215 388 313 621 b 215 838 313 797 268 838 b 185 833 206 838 194 836 b 153 775 119 815 117 769 b 231 325 325 800 103 403 b 228 313 238 321 236 314 b 142 226 186 308 153 263 b 6 -56 111 138 111 -56 b -46 -47 -12 -56 -33 -47 b -61 -62 -56 -47 -61 -51 b 14 -119 -61 -89 -37 -119 b 171 24 100 -119 150 -35 b 317 296 192 86 200 267 b 324 325 335 300 339 317 z "},"]":{"ha":335,"x_min":0,"x_max":0,"o":"m 56 -39 b 3 -68 31 -37 6 -32 b 119 -114 -1 -117 31 -110 b 186 -44 165 -115 181 -89 b 290 547 207 92 271 413 b 324 754 301 617 313 685 b 281 832 331 796 315 831 b 144 790 204 836 150 849 b 186 768 143 760 171 768 b 238 717 236 767 243 763 b 118 10 213 543 143 183 b 56 -39 111 -42 107 -42 z "},".":{"ha":214,"x_min":0,"x_max":0,"o":"m 104 -6 b 117 142 174 -6 185 142 b 104 -6 51 142 44 -6 z "},",":{"ha":211,"x_min":0,"x_max":0,"o":"m 104 -6 b 106 -69 135 -6 74 -69 b 117 142 136 -69 203 142 b 104 -6 51 142 44 -6 z "},":":{"ha":269,"x_min":0,"x_max":0,"o":"m 139 318 b 151 465 208 318 219 465 b 139 318 85 465 78 318 z m 104 -6 b 117 142 174 -6 185 142 b 104 -6 51 142 44 -6 z "},";":{"ha":272,"x_min":0,"x_max":0,"o":"m 139 318 b 151 465 208 318 219 465 b 139 318 85 465 78 318 z m 104 -6 b 106 -69 135 -6 74 -69 b 117 142 136 -69 203 142 b 104 -6 51 142 44 -6 z "},"=":{"ha":474,"x_min":0,"x_max":0,"o":"m 372 438 b 118 439 288 440 203 439 b 63 399 90 439 72 424 b 89 363 54 374 63 361 b 228 368 135 367 181 368 b 365 363 274 368 319 367 b 410 406 392 361 407 376 b 372 438 413 433 392 438 z m 360 307 b 106 308 275 310 190 307 b 50 268 76 308 60 293 b 76 232 40 243 50 231 b 214 238 122 236 168 238 b 351 232 260 238 306 236 b 397 275 378 229 394 246 b 360 307 399 303 379 307 z "},"<":{"ha":479,"x_min":0,"x_max":0,"o":"m 319 96 b 346 126 338 94 340 107 b 332 169 353 146 353 158 b 182 275 311 182 214 235 b 181 336 157 308 156 317 b 383 454 238 382 319 421 b 407 494 399 463 422 469 b 349 521 394 515 378 533 b 92 358 254 479 169 424 b 89 282 61 332 67 314 b 319 96 132 219 238 96 z "},">":{"ha":478,"x_min":0,"x_max":0,"o":"m 154 533 b 126 501 136 533 133 521 b 140 458 121 483 121 469 b 290 353 163 447 258 393 b 292 292 317 319 317 313 b 90 174 236 247 154 207 b 65 133 75 165 50 158 b 106 103 75 118 86 103 b 125 108 111 103 118 106 b 382 271 218 150 304 204 b 383 347 411 296 406 314 b 154 533 342 408 236 532 z "},"'":{"ha":204,"x_min":0,"x_max":0,"o":"m 113 599 b 114 535 143 599 82 535 b 125 746 144 535 211 746 b 113 599 60 746 53 599 z "},"\"":{"ha":322,"x_min":0,"x_max":0,"o":"m 113 599 b 114 535 143 599 82 535 b 125 746 144 535 211 746 b 113 599 60 746 53 599 z m 231 599 b 232 535 261 599 200 535 b 244 746 264 535 329 746 b 231 599 178 746 171 599 z "},"|":{"ha":325,"x_min":0,"x_max":0,"o":"m 224 775 b 185 846 226 844 229 844 b 138 776 139 847 139 821 b 121 -12 135 514 121 250 b 163 -86 121 -75 128 -86 b 213 29 215 -86 213 -68 b 224 775 213 214 219 599 z "},"/":{"ha":385,"x_min":0,"x_max":0,"o":"m 454 775 b 442 846 482 844 485 844 b 369 776 396 847 386 821 b 63 -12 269 514 160 250 b 78 -86 40 -75 43 -86 b 169 29 129 -86 133 -68 b 454 775 238 214 386 599 z "},"\\":{"ha":517,"x_min":0,"x_max":0,"o":"m 69 775 b 356 29 139 599 288 214 b 447 -86 390 -68 394 -86 b 461 -12 482 -86 485 -75 b 156 776 365 250 254 514 b 83 846 139 821 129 847 b 69 775 40 844 43 844 z "},"-":{"ha":426,"x_min":0,"x_max":0,"o":"m 349 390 b 94 392 264 393 179 392 b 39 351 67 392 49 376 b 65 315 31 326 39 314 b 204 321 111 319 157 321 b 342 315 250 321 296 319 b 386 358 368 314 383 329 b 349 390 389 386 368 390 z "},"+":{"ha":431,"x_min":0,"x_max":0,"o":"m 349 390 b 254 392 317 392 286 392 b 269 483 261 422 264 453 b 244 526 272 503 272 524 b 193 490 215 529 197 515 b 179 392 190 457 185 425 b 94 392 150 392 124 392 b 39 351 65 392 49 376 b 65 315 31 326 39 314 b 165 321 100 318 132 319 b 143 219 158 286 153 253 b 174 186 136 193 147 182 b 224 233 200 192 218 206 b 242 321 229 263 236 292 b 342 315 275 319 307 318 b 386 358 367 314 383 329 b 349 390 389 386 368 390 z "},"^":{"ha":535,"x_min":0,"x_max":0,"o":"m 272 513 b 407 315 304 513 383 361 b 435 290 413 304 422 290 b 451 297 440 290 446 292 b 465 360 469 314 481 331 b 271 601 436 421 325 601 b 78 360 219 601 103 421 b 93 297 65 331 75 314 b 110 290 100 292 106 290 b 138 315 124 290 132 303 b 272 513 157 361 240 513 z "},"_":{"ha":478,"x_min":0,"x_max":0,"o":"m 390 63 b 94 63 306 64 179 63 b 39 28 67 64 49 54 b 65 -7 31 3 39 -10 b 207 -3 107 -4 157 -3 b 383 -8 269 -3 332 -4 b 428 35 408 -10 425 6 b 390 63 431 63 410 61 z "},"`":{"ha":233,"x_min":0,"x_max":0,"o":"m 190 557 b 204 590 213 569 218 578 b 143 672 179 614 160 643 b 121 688 138 681 136 693 b 88 647 108 681 81 661 b 190 557 99 625 167 544 z "},"~":{"ha":433,"x_min":0,"x_max":0,"o":"m 126 413 b 63 358 97 414 64 401 b 97 303 61 325 85 303 b 119 319 111 301 122 307 b 146 351 117 336 119 351 b 308 300 179 350 247 303 b 381 368 339 299 379 314 b 343 411 382 406 356 410 b 329 393 335 411 325 406 b 301 358 338 365 317 358 b 126 413 261 360 181 411 z "},"":{"ha":228,"x_min":0,"x_max":0,"o":"m 64 550 b -346 699 -82 579 -186 699 b -496 572 -469 699 -496 618 b -435 492 -496 521 -464 486 b -365 550 -411 497 -428 528 b -308 560 -346 557 -328 560 b 47 475 -221 560 -122 503 b 113 0 24 363 -53 0 b 271 186 199 0 254 108 b 271 272 275 206 300 272 b 168 151 219 272 232 151 b 168 458 99 153 161 422 b 294 567 392 440 353 583 b 183 529 283 564 306 522 b 203 631 194 593 199 610 b 153 692 210 661 189 683 b 89 656 115 700 97 692 b 64 550 79 617 79 626 z "},"":{"ha":469,"x_min":0,"x_max":0,"o":"m 417 151 b 393 385 354 151 386 331 b 539 647 453 406 517 529 b 458 818 568 793 507 818 b 233 207 292 818 249 343 b 181 151 213 163 194 151 b 144 236 146 151 143 213 b 215 733 149 401 185 575 b 165 796 221 765 201 788 b 100 760 126 804 108 794 b -3 196 57 572 19 388 b 111 0 -21 39 57 0 b 240 81 169 0 211 35 b 346 0 261 18 308 0 b 518 186 449 0 500 108 b 517 272 522 206 547 272 b 475 222 489 272 482 238 b 417 151 450 165 431 151 z m 403 440 b 483 715 417 506 444 715 b 403 440 517 715 457 463 z "},"":{"ha":3097,"x_min":0,"x_max":0,"o":"m 594 414 b 490 800 782 449 858 800 b 161 574 322 800 161 707 b 258 471 161 518 194 471 b 344 564 292 471 342 504 b 331 575 346 575 343 579 b 296 636 289 560 281 603 b 479 739 321 696 403 739 b 457 432 740 739 617 431 b 532 650 465 492 486 631 b 521 703 567 664 560 694 b 403 650 475 711 432 700 b 354 490 372 594 367 551 b 168 186 328 369 301 186 b 111 246 144 186 111 204 b 100 269 111 263 108 269 b 78 261 94 269 88 267 b 1 108 31 236 1 158 b 168 -60 1 0 86 -60 b 332 39 238 -60 300 -18 b 486 -40 357 0 396 -40 b 594 414 751 -40 813 379 z m 474 144 b 444 217 429 144 417 194 b 468 240 451 222 468 231 b 426 258 468 258 447 261 b 449 376 436 293 444 354 b 594 283 521 388 594 374 b 474 144 594 200 553 144 z m 999 572 b 946 647 1001 614 979 644 b 872 571 911 650 876 614 b 926 496 869 531 893 499 b 999 572 964 493 994 526 z m 789 131 b 886 0 789 65 822 0 b 1040 186 972 0 1022 108 b 1039 272 1044 206 1069 272 b 997 222 1011 272 1004 238 b 939 151 972 165 953 149 b 950 400 894 161 946 364 b 894 449 954 429 931 442 b 833 414 856 456 843 440 b 789 131 831 407 789 254 z m 1413 151 b 1389 385 1350 151 1382 331 b 1535 647 1449 406 1513 529 b 1454 818 1564 793 1503 818 b 1229 207 1288 818 1244 343 b 1176 151 1208 163 1190 151 b 1140 236 1142 151 1139 213 b 1211 733 1144 401 1181 575 b 1161 796 1217 765 1197 788 b 1096 760 1122 804 1104 794 b 993 196 1053 572 1015 388 b 1107 0 975 39 1053 0 b 1236 81 1165 0 1207 35 b 1342 0 1257 18 1304 0 b 1514 186 1444 0 1496 108 b 1513 272 1518 206 1543 272 b 1471 222 1485 272 1478 238 b 1413 151 1446 165 1426 151 z m 1399 440 b 1479 715 1413 506 1440 715 b 1399 440 1513 715 1453 463 z m 1703 111 b 1800 0 1708 58 1736 0 b 1954 186 1886 0 1936 108 b 1953 272 1958 206 1983 272 b 1911 222 1925 272 1918 238 b 1853 151 1886 165 1867 149 b 1864 400 1808 161 1860 364 b 1808 449 1868 429 1844 442 b 1739 390 1760 457 1751 429 b 1650 451 1726 426 1700 451 b 1565 0 1458 451 1394 0 b 1703 111 1636 0 1688 72 z m 1688 368 b 1631 157 1749 368 1682 157 b 1688 368 1568 157 1619 368 z m 2138 353 b 2133 118 2188 353 2133 254 b 2226 0 2133 49 2168 0 b 2379 186 2313 0 2363 108 b 2379 272 2383 206 2408 272 b 2336 222 2350 272 2343 238 b 2285 149 2333 213 2308 149 b 2267 260 2239 149 2265 244 b 2182 450 2279 346 2297 450 b 2060 350 2125 450 2078 389 b 2065 411 2061 371 2065 392 b 2008 451 2065 447 2040 451 b 1943 411 1989 451 1951 449 b 1904 153 1925 326 1908 240 b 1963 0 1894 31 1901 0 b 2018 64 2003 0 2014 31 b 2138 353 2035 171 2067 353 z m 2400 550 b 1990 699 2254 579 2150 699 b 1840 572 1867 699 1840 618 b 1901 492 1840 521 1872 486 b 1971 550 1925 497 1908 528 b 2028 560 1990 557 2008 560 b 2383 475 2115 560 2214 503 b 2449 0 2360 363 2283 0 b 2607 186 2535 0 2590 108 b 2607 272 2611 206 2636 272 b 2504 151 2556 272 2568 151 b 2504 458 2435 153 2497 422 b 2631 567 2728 440 2689 583 b 2519 529 2619 564 2642 522 b 2539 631 2531 593 2535 610 b 2489 692 2546 661 2525 683 b 2425 656 2451 700 2433 692 b 2400 550 2415 617 2415 626 z m 2793 111 b 2890 0 2799 58 2826 0 b 3044 186 2976 0 3026 108 b 3043 272 3049 206 3074 272 b 3001 222 3015 272 3008 238 b 2943 151 2976 165 2957 149 b 2954 400 2899 161 2950 364 b 2899 449 2958 429 2935 442 b 2829 390 2850 457 2842 429 b 2740 451 2817 426 2790 451 b 2656 0 2549 451 2485 0 b 2793 111 2726 0 2778 72 z m 2778 368 b 2721 157 2839 368 2772 157 b 2778 368 2658 157 2710 368 z "},"\u0000":{"ha":0,"x_min":0,"x_max":0,"o":""}}}
